<?xml version="1.0" encoding="utf-8"?>
<!-- Generator: Adobe Illustrator 23.1.0, SVG Export Plug-In . SVG Version: 6.00 Build 0)  -->
<svg version="1.1" id="Capa_1" xmlns="http://www.w3.org/2000/svg" xmlns:xlink="http://www.w3.org/1999/xlink" x="0px" y="0px"
	 viewBox="0 0 98.8 73.6" style="enable-background:new 0 0 98.8 73.6;" xml:space="preserve">
<style type="text/css">
	.st0{font-family:'DFLiYuan-W8-WINP-BF';}
	.st1{font-size:13.7193px;}
</style>
<path id="XMLID_448_" d="M81.2,43.2h-3L71.4,7.9C70.5,3.3,66.5,0,61.8,0H36.6c-4.7,0-8.7,3.3-9.6,7.9l-3.8,20h-1.8
	c-3.1,0-5.6,2.5-5.6,5.6v2.8c0,2.7,1.1,5.2,2.9,7h-1.5c-0.8,0-1.4,0.6-1.4,1.4c0,5.4,4.4,9.7,9.7,9.7h47.3c5.4,0,9.7-4.4,9.7-9.7
	C82.6,43.8,82,43.2,81.2,43.2z M36.6,2.8h25.2c3.3,0,6.2,2.3,6.8,5.6h-4.1c-2.3,0-4.2,1.9-4.2,4.2v9.7c0,0.8-0.3,1.5-0.8,2
	s-1.3,0.8-2,0.8c-1.5,0-2.7-1.3-2.7-2.9v-8.3c0-0.8-0.6-1.4-1.4-1.4S52,13.1,52,13.9s-0.3,1.5-0.8,2s-1.3,0.8-2,0.8
	c-1.5,0-2.7-1.3-2.7-2.9v-1.3c0-2.3-1.9-4.2-4.2-4.2H29.8C30.4,5.1,33.3,2.8,36.6,2.8z M29.2,11.2h13c0.8,0,1.4,0.6,1.4,1.4v1.3
	c0,3,2.4,5.6,5.4,5.7c1,0,2.1-0.2,2.9-0.7v3.4c0,3,2.4,5.6,5.4,5.7c1.5,0,3-0.5,4-1.6c1.1-1.1,1.7-2.5,1.7-4v-9.7
	c0-0.8,0.6-1.4,1.4-1.4h4.8l6.2,32H46.3c1.8-1.8,2.9-4.2,2.9-7v-2.8c0-3.1-2.5-5.6-5.6-5.6h-2.8c-3.5,0-6.6,1.9-8.4,4.7
	c-1.4-2.3-3.8-4-6.5-4.6L29.2,11.2z M39.9,37.2c-0.5-0.5-1.4-0.5-2,0l-4,4v-3.6l0,0l0,0c0-3.8,3.1-7,7-7h2.8c1.5,0,2.8,1.2,2.8,2.8
	v2.8c0,3.8-3.1,7-7,7h-3.6l4-4C40.4,38.6,40.4,37.7,39.9,37.2z M18.6,36.2v-2.8c0-1.5,1.2-2.8,2.8-2.8h2.8c3.8,0,7,3.1,7,7l0,0l0,0
	v3.6l-4-4c-0.5-0.5-1.4-0.5-2,0c-0.5,0.5-0.5,1.4,0,2l4,4h-3.6C21.7,43.2,18.6,40,18.6,36.2z M72.9,51.5H25.5
	c-3.4,0-6.2-2.4-6.8-5.6h61C79,49.1,76.2,51.5,72.9,51.5z"/>
<text transform="matrix(1 0 0 1 -0.7657 72.3568)" class="st0 st1">PUDDING PUB</text>
</svg>
