<?xml version="1.0" encoding="utf-8"?>
<!-- Generator: Adobe Illustrator 23.1.0, SVG Export Plug-In . SVG Version: 6.00 Build 0)  -->
<svg version="1.1" id="圖層_1" xmlns="http://www.w3.org/2000/svg" xmlns:xlink="http://www.w3.org/1999/xlink" x="0px" y="0px"
	 viewBox="0 0 512 512" style="enable-background:new 0 0 512 512;" xml:space="preserve">
<style type="text/css">
	.st0{fill:#993300;}
	.st1{fill:#CC3300;}
	.st2{fill:#660000;}
</style>
<path class="st0" d="M419.6,81c-59.2-8.7-87.3,5-117.1,19.5c-31.2,15.2-66.6,32.5-148.4,26.7c-56.6-4-96.3,7.7-118,34.7
	c-12.7,16.6-19,37.3-17.8,58.1v69.6c0,2.5,0,4.7,0.2,6.6h-0.2c-0.1,10.1,1.1,20.1,3.7,29.9c8,27.3,43.8,107.6,184.9,107.6
	c20.9-0.1,41.8-1.6,62.5-4.6c123.9-17.3,224.1-121.7,224.4-196.5v-80.4C493.8,129.5,484,90.5,419.6,81z M380.2,138.5l37.9-13.6
	c3.6-1.3,7.7,0.6,9,4.2c1.3,3.6-0.6,7.7-4.2,9l-38,13.6c-0.8,0.3-1.5,0.4-2.4,0.4c-3,0-5.6-1.9-6.6-4.7
	C374.6,143.8,376.5,139.8,380.2,138.5z M68.5,205.1c-3.3-2.1-4.2-6.4-2.1-9.7c2.1-3.3,6.4-4.2,9.7-2.1l12.9,8.2
	c0.1,0,0.1,0.1,0.2,0.1c3.2,2.1,4.1,6.5,2,9.7c-2.1,3.2-6.5,4.1-9.7,1.9L68.5,205.1C68.6,205.1,68.6,205.1,68.5,205.1z M265.8,396.6
	c-18.1,3.9-36.5,5.9-55,5.9c-1.1,0-2.3,0-3.4,0c-16.1,0-32.1-2-47.7-6.1c-3.7-1.1-5.8-5-4.7-8.7c1.1-3.7,5-5.8,8.7-4.7
	c0.4,0.1,41.6,12.2,99.1-0.1c3.8-0.8,7.5,1.6,8.3,5.4C272,392.1,269.6,395.8,265.8,396.6z M327.1,377.7c-9.6,3.9-19.5,7.1-29.5,9.8
	c-0.6,0.2-1.2,0.2-1.8,0.2c-3.2,0-6-2.1-6.8-5.2c-1-3.7,1.2-7.6,5-8.6c9.3-2.5,18.4-5.5,27.4-9c3.5-1.6,7.7,0,9.3,3.5
	C332.2,372,330.6,376.1,327.1,377.7z M435.1,181.7l-44.1,15.8l25.2,16.1c3.3,2.1,4.2,6.4,2.1,9.7c-2.1,3.3-6.4,4.2-9.7,2.1
	l-34.3-21.9l-46.8,16.8l43.3,27.7c3.3,2.1,4.2,6.4,2.1,9.7c-2.1,3.3-6.4,4.2-9.7,2.1L311,226.2l-46.4,16.7l35,22.4l27.6-9.9
	c0.2-0.1,0.4-0.2,0.7-0.2c3.7-1.1,7.6,1,8.7,4.7c1.1,3.7-1,7.6-4.7,8.7l-17.4,6.2l3.2,2c3.3,2.1,4.2,6.4,2.1,9.7
	c-2.1,3.3-6.4,4.2-9.7,2.1l-12.3-7.8l-28.1,10.1c-0.8,0.3-1.6,0.4-2.4,0.4c-3,0-5.6-1.9-6.6-4.7c-1.3-3.6,0.6-7.6,4.3-8.9l17.9-6.4
	l-35-22.4l-54.4,19.5l41.5,26.5c0.1,0.1,0.1,0.1,0.2,0.1c3.2,2.1,4.1,6.5,2,9.7c-2.1,3.2-6.5,4.1-9.7,2l-50.6-32.4l-47.5,17
	c-0.8,0.3-1.6,0.4-2.4,0.4c-3,0-5.6-1.9-6.6-4.7c-1.3-3.6,0.6-7.6,4.3-8.9l37.3-13.4l-33.2-21.2l-41.2,14.8
	c-0.8,0.3-1.6,0.4-2.4,0.4c-3,0-5.6-1.9-6.6-4.7c-1.3-3.6,0.6-7.6,4.3-8.9l31-11.1l-9.9-6.3c-3.2-2.1-4.1-6.3-2.1-9.5
	c2-3.3,6.4-4.3,9.6-2.3l19,12.2l54.4-19.5l-45.8-29.3c0,0,0,0,0,0c-3.3-2.1-4.2-6.4-2.1-9.7c2.1-3.3,6.4-4.2,9.7-2.1l54.9,35.1
	L248,186l-17.5-11.2c0,0,0,0,0,0c-3.3-2.1-4.2-6.4-2.1-9.7c2.1-3.3,6.4-4.2,9.7-2.1l26.6,17l46.8-16.8l-11.5-7.4c0,0,0,0,0,0
	c-3.3-2.1-4.2-6.4-2.1-9.7c2.1-3.3,6.4-4.2,9.7-2.1l20.6,13.2l26.1-9.4c3.6-1.3,7.7,0.6,9,4.2c1.3,3.6-0.6,7.7-4.2,9l-15.9,5.7
	l33.2,21.2l54.3-19.5c3.6-1.3,7.6,0.6,9,4.2C440.7,176.3,438.8,180.3,435.1,181.7z"/>
<polygon class="st0" points="233,239.3 178.7,258.8 145.5,237.6 199.8,218.1 "/>
<polygon class="st0" points="296.1,216.7 249.7,233.4 216.5,212.1 262.9,195.5 "/>
<polygon class="st0" points="359.5,194 312.7,210.8 279.5,189.5 326.3,172.7 "/>
<path class="st1" d="M419.6,81c-59.2-8.7-87.3,5-117.1,19.5c-31.2,15.2-66.6,32.5-148.4,26.7c-56.6-4-96.3,7.7-118,34.7
	c-12.7,16.6-19,37.3-17.8,58.1v69.6c0,2.5,0,4.7,0.2,6.6h-0.2c-0.1,10.1,1.1,20.1,3.7,29.9c8,27.3,43.8,107.6,184.9,107.6
	c20.9-0.1,41.8-1.6,62.5-4.6c123.9-17.3,224.1-121.7,224.4-196.5v-80.4C493.8,129.5,484,90.5,419.6,81z M380.2,138.5l37.9-13.6
	c3.6-1.3,7.7,0.6,9,4.2c1.3,3.6-0.6,7.7-4.2,9l-38,13.6c-0.8,0.3-1.5,0.4-2.4,0.4c-3,0-5.6-1.9-6.6-4.7
	C374.6,143.8,376.5,139.8,380.2,138.5z M68.5,205.1c-3.3-2.1-4.2-6.4-2.1-9.7c2.1-3.3,6.4-4.2,9.7-2.1l12.9,8.2
	c0.1,0,0.1,0.1,0.2,0.1c3.2,2.1,4.1,6.5,2,9.7c-2.1,3.2-6.5,4.1-9.7,1.9L68.5,205.1C68.6,205.1,68.6,205.1,68.5,205.1z M265.8,396.6
	c-18.1,3.9-36.5,5.9-55,5.9c-1.1,0-2.3,0-3.4,0c-16.1,0-32.1-2-47.7-6.1c-3.7-1.1-5.8-5-4.7-8.7c1.1-3.7,5-5.8,8.7-4.7
	c0.4,0.1,41.6,12.2,99.1-0.1c3.8-0.8,7.5,1.6,8.3,5.4C272,392.1,269.6,395.8,265.8,396.6z M327.1,377.7c-9.6,3.9-19.5,7.1-29.5,9.8
	c-0.6,0.2-1.2,0.2-1.8,0.2c-3.2,0-6-2.1-6.8-5.2c-1-3.7,1.2-7.6,5-8.6c9.3-2.5,18.4-5.5,27.4-9c3.5-1.6,7.7,0,9.3,3.5
	C332.2,372,330.6,376.1,327.1,377.7z M435.1,181.7l-44.1,15.8l25.2,16.1c3.3,2.1,4.2,6.4,2.1,9.7c-2.1,3.3-6.4,4.2-9.7,2.1
	l-34.3-21.9l-46.8,16.8l43.3,27.7c3.3,2.1,4.2,6.4,2.1,9.7c-2.1,3.3-6.4,4.2-9.7,2.1L311,226.2l-46.4,16.7l35,22.4l27.6-9.9
	c0.2-0.1,0.4-0.2,0.7-0.2c3.7-1.1,7.6,1,8.7,4.7c1.1,3.7-1,7.6-4.7,8.7l-17.4,6.2l3.2,2c3.3,2.1,4.2,6.4,2.1,9.7
	c-2.1,3.3-6.4,4.2-9.7,2.1l-12.3-7.8l-28.1,10.1c-0.8,0.3-1.6,0.4-2.4,0.4c-3,0-5.6-1.9-6.6-4.7c-1.3-3.6,0.6-7.6,4.3-8.9l17.9-6.4
	l-35-22.4l-54.4,19.5l41.5,26.5c0.1,0.1,0.1,0.1,0.2,0.1c3.2,2.1,4.1,6.5,2,9.7c-2.1,3.2-6.5,4.1-9.7,2l-50.6-32.4l-47.5,17
	c-0.8,0.3-1.6,0.4-2.4,0.4c-3,0-5.6-1.9-6.6-4.7c-1.3-3.6,0.6-7.6,4.3-8.9l37.3-13.4l-33.2-21.2l-41.2,14.8
	c-0.8,0.3-1.6,0.4-2.4,0.4c-3,0-5.6-1.9-6.6-4.7c-1.3-3.6,0.6-7.6,4.3-8.9l31-11.1l-9.9-6.3c-3.2-2.1-4.1-6.3-2.1-9.5
	c2-3.3,6.4-4.3,9.6-2.3l19,12.2l54.4-19.5l-45.8-29.3c0,0,0,0,0,0c-3.3-2.1-4.2-6.4-2.1-9.7c2.1-3.3,6.4-4.2,9.7-2.1l54.9,35.1
	L248,186l-17.5-11.2c0,0,0,0,0,0c-3.3-2.1-4.2-6.4-2.1-9.7c2.1-3.3,6.4-4.2,9.7-2.1l26.6,17l46.8-16.8l-11.5-7.4c0,0,0,0,0,0
	c-3.3-2.1-4.2-6.4-2.1-9.7c2.1-3.3,6.4-4.2,9.7-2.1l20.6,13.2l26.1-9.4c3.6-1.3,7.7,0.6,9,4.2c1.3,3.6-0.6,7.7-4.2,9l-15.9,5.7
	l33.2,21.2l54.3-19.5c3.6-1.3,7.6,0.6,9,4.2C440.7,176.3,438.8,180.3,435.1,181.7z"/>
<g>
	<path class="st2" d="M419.7,83.9c-59.2-8.7-87.3,5-117.1,19.5c-31.2,15.2-66.6,32.5-148.4,26.7c-56.6-4-96.3,7.7-118,34.7
		c-12.7,16.6-19,37.3-17.8,58.1v69.6c0,2.5,0,4.7,0.2,6.6h-0.2c-0.1,10.1,1.1,20.1,3.7,29.9c8,27.3,43.8,107.6,184.9,107.6
		c20.9-0.1,41.8-1.6,62.5-4.6c123.9-17.3,224.1-121.7,224.4-196.5V155C493.9,132.3,484.1,93.3,419.7,83.9z M47.1,173.5
		c18.7-23.1,54.4-33,106-29.4c85.6,6,122.8-12.1,155.6-28.1c29-14.1,54-26.3,109-18.3c40.8,6,62.3,25.9,62.2,57.5
		c-0.2,68.9-98.3,166.8-212.4,182.8C85.1,363.6,43.7,273.3,35.4,245C35.2,244.4,23.5,202.7,47.1,173.5z M267.5,418
		C85,443.6,43.7,353.3,35.4,325c-2.1-8.4-3.2-17.1-3.1-25.8v-25.6c18.8,34.5,64.8,83,174.6,83c20.9-0.1,41.8-1.6,62.5-4.6
		C366,338.4,448.1,272,479.8,208l0,27.4C479.5,304.3,381.5,402.1,267.5,418z"/>
</g>
<path class="st2" d="M439.4,172.7c-1.3-3.6-5.3-5.5-9-4.2L376.2,188L343,166.8l15.9-5.7c3.6-1.3,5.5-5.3,4.2-9
	c-1.3-3.7-5.3-5.5-9-4.2l-26.1,9.4L307.4,144c-3.3-2.1-7.6-1.2-9.7,2.1c-2.1,3.3-1.2,7.6,2.1,9.7c0,0,0,0,0,0l11.5,7.4L264.6,180
	L238,163c-3.3-2.1-7.6-1.2-9.7,2.1c-2.1,3.3-1.2,7.6,2.1,9.7c0,0,0,0,0,0L248,186l-46.4,16.7l-54.9-35.1c-3.3-2.1-7.6-1.2-9.7,2.1
	c-2.1,3.3-1.2,7.6,2.1,9.7c0,0,0,0,0,0l45.8,29.3l-54.4,19.5l-19-12.2c-3.3-2-7.6-1-9.6,2.3c-2,3.2-1.1,7.5,2.1,9.5l9.9,6.3
	l-31,11.1c-3.7,1.3-5.6,5.3-4.3,8.9c1,2.8,3.7,4.7,6.6,4.7c0.8,0,1.6-0.1,2.4-0.4l41.2-14.8l33.2,21.2l-37.3,13.4
	c-3.7,1.3-5.6,5.3-4.3,8.9c1,2.8,3.7,4.7,6.6,4.7c0.8,0,1.6-0.1,2.4-0.4l47.5-17l50.6,32.4c3.2,2.1,7.6,1.3,9.7-2
	c2.1-3.2,1.3-7.6-2-9.7c-0.1,0-0.1-0.1-0.2-0.1l-41.5-26.5l54.4-19.5l35,22.4l-17.9,6.4c-3.6,1.3-5.5,5.3-4.3,8.9
	c1,2.8,3.7,4.7,6.6,4.7c0.8,0,1.6-0.1,2.4-0.4l28.1-10.1l12.3,7.8c3.3,2.1,7.6,1.1,9.7-2.1c2.1-3.3,1.1-7.6-2.1-9.7l-3.2-2l17.4-6.2
	c3.7-1.1,5.8-5,4.7-8.7c-1.1-3.7-5-5.8-8.7-4.7c-0.2,0.1-0.5,0.2-0.7,0.2l-27.6,9.9l-35-22.4l46.4-16.7l52.4,33.5
	c3.3,2.1,7.6,1.1,9.7-2.1c2.1-3.3,1.1-7.6-2.1-9.7l-43.3-27.7l46.8-16.8l34.3,21.9c3.3,2.1,7.6,1.1,9.7-2.1c2.1-3.3,1.1-7.6-2.1-9.7
	l-25.2-16.1l44.1-15.8C438.8,180.3,440.7,176.3,439.4,172.7z M178.7,258.8l-33.2-21.2l54.4-19.5l33.2,21.2L178.7,258.8z
	 M249.7,233.4l-33.2-21.2l46.4-16.7l33.2,21.2L249.7,233.4z M312.7,210.8l-33.2-21.2l46.8-16.8l33.2,21.2L312.7,210.8z"/>
<polygon class="st1" points="199.8,218.1 233,239.3 178.7,258.8 145.5,237.6 "/>
<polygon class="st1" points="262.9,195.5 296.1,216.7 249.7,233.4 216.5,212.1 "/>
<polygon class="st1" points="326.3,172.7 359.5,194 312.7,210.8 279.5,189.5 "/>
<path class="st2" d="M265.8,396.6c-18.1,3.9-36.5,5.9-55,5.9c-1.1,0-2.3,0-3.4,0c-16.1,0-32.1-2-47.7-6.1c-3.7-1.1-5.8-5-4.7-8.7
	c1.1-3.7,5-5.8,8.7-4.7c0.4,0.1,41.6,12.2,99.1-0.1c3.8-0.8,7.5,1.6,8.3,5.4C272,392.1,269.6,395.8,265.8,396.6z"/>
<path class="st2" d="M327.1,377.7c-9.6,3.9-19.5,7.1-29.5,9.8c-0.6,0.2-1.2,0.2-1.8,0.2c-3.2,0-6-2.1-6.8-5.2c-1-3.7,1.2-7.6,5-8.6
	c9.3-2.5,18.4-5.5,27.4-9c3.5-1.6,7.7,0,9.3,3.5C332.2,372,330.6,376.1,327.1,377.7z"/>
<path class="st2" d="M422.9,138.1l-38,13.6c-0.8,0.3-1.5,0.4-2.4,0.4c-3,0-5.6-1.9-6.6-4.7c-1.3-3.6,0.6-7.6,4.3-8.9l37.9-13.6
	c3.6-1.3,7.7,0.6,9,4.2C428.4,132.8,426.5,136.8,422.9,138.1z"/>
<path class="st2" d="M91.2,211.4c-2.1,3.2-6.5,4.1-9.7,1.9l-12.9-8.2c0,0,0,0,0,0c-3.3-2.1-4.2-6.4-2.1-9.7c2.1-3.3,6.4-4.2,9.7-2.1
	l12.9,8.2c0.1,0,0.1,0.1,0.2,0.1C92.5,203.8,93.3,208.2,91.2,211.4z"/>
</svg>
